<svg xmlns="http://www.w3.org/2000/svg" xmlns:xlink="http://www.w3.org/1999/xlink" width="2000" zoomAndPan="magnify" viewBox="0 0 1500 1499.999933" height="2000" preserveAspectRatio="xMidYMid meet" version="1.0"><defs><g/><clipPath id="ab560f3d69"><path d="M 1361.261719 628.605469 L 1408.148438 628.605469 L 1408.148438 675.492188 L 1361.261719 675.492188 Z M 1361.261719 628.605469 " clip-rule="nonzero"/></clipPath><clipPath id="9f49c97acf"><path d="M 1384.703125 628.605469 L 1392.164062 644.589844 L 1408.148438 652.050781 L 1392.164062 659.507812 L 1384.703125 675.492188 L 1377.246094 659.507812 L 1361.261719 652.050781 L 1377.246094 644.589844 Z M 1384.703125 628.605469 " clip-rule="nonzero"/></clipPath><clipPath id="c7638e5b4f"><path d="M 0.261719 0.605469 L 47.148438 0.605469 L 47.148438 47.492188 L 0.261719 47.492188 Z M 0.261719 0.605469 " clip-rule="nonzero"/></clipPath><clipPath id="bdb205bfab"><path d="M 23.703125 0.605469 L 31.164062 16.589844 L 47.148438 24.050781 L 31.164062 31.507812 L 23.703125 47.492188 L 16.246094 31.507812 L 0.261719 24.050781 L 16.246094 16.589844 Z M 23.703125 0.605469 " clip-rule="nonzero"/></clipPath><clipPath id="5158c0193a"><rect x="0" width="48" y="0" height="48"/></clipPath></defs><g fill="#ffffff" fill-opacity="1"><g transform="translate(170.57892, 753.947795)"><g><path d="M 111.71875 -68.125 C 119.207031 -65.75 125.070312 -61.785156 129.3125 -56.234375 C 133.550781 -50.679688 135.671875 -43.851562 135.671875 -35.75 C 135.671875 -24.269531 131.210938 -15.441406 122.296875 -9.265625 C 113.378906 -3.085938 100.375 0 83.28125 0 L 15.53125 0 L 15.53125 -131 L 79.53125 -131 C 95.5 -131 107.753906 -127.941406 116.296875 -121.828125 C 124.847656 -115.710938 129.125 -107.414062 129.125 -96.9375 C 129.125 -90.570312 127.59375 -84.894531 124.53125 -79.90625 C 121.476562 -74.914062 117.207031 -70.988281 111.71875 -68.125 Z M 45.65625 -108.171875 L 45.65625 -77.296875 L 75.796875 -77.296875 C 83.273438 -77.296875 88.945312 -78.601562 92.8125 -81.21875 C 96.6875 -83.84375 98.625 -87.710938 98.625 -92.828125 C 98.625 -97.941406 96.6875 -101.773438 92.8125 -104.328125 C 88.945312 -106.890625 83.273438 -108.171875 75.796875 -108.171875 Z M 81.03125 -22.828125 C 89.019531 -22.828125 95.039062 -24.132812 99.09375 -26.75 C 103.144531 -29.375 105.171875 -33.429688 105.171875 -38.921875 C 105.171875 -49.773438 97.125 -55.203125 81.03125 -55.203125 L 45.65625 -55.203125 L 45.65625 -22.828125 Z M 81.03125 -22.828125 "/></g></g></g><g fill="#ffffff" fill-opacity="1"><g transform="translate(313.738443, 753.947795)"><g><path d="M 112.09375 -49.96875 C 112.09375 -49.59375 111.90625 -46.972656 111.53125 -42.109375 L 35.375 -42.109375 C 36.738281 -35.867188 39.976562 -30.9375 45.09375 -27.3125 C 50.21875 -23.695312 56.582031 -21.890625 64.1875 -21.890625 C 69.425781 -21.890625 74.070312 -22.671875 78.125 -24.234375 C 82.1875 -25.796875 85.960938 -28.257812 89.453125 -31.625 L 104.984375 -14.78125 C 95.503906 -3.925781 81.65625 1.5 63.4375 1.5 C 52.082031 1.5 42.039062 -0.710938 33.3125 -5.140625 C 24.582031 -9.578125 17.84375 -15.722656 13.09375 -23.578125 C 8.351562 -31.441406 5.984375 -40.363281 5.984375 -50.34375 C 5.984375 -60.195312 8.320312 -69.082031 13 -77 C 17.6875 -84.925781 24.113281 -91.101562 32.28125 -95.53125 C 40.457031 -99.957031 49.597656 -102.171875 59.703125 -102.171875 C 69.554688 -102.171875 78.472656 -100.050781 86.453125 -95.8125 C 94.441406 -91.570312 100.710938 -85.488281 105.265625 -77.5625 C 109.816406 -69.644531 112.09375 -60.445312 112.09375 -49.96875 Z M 59.890625 -80.09375 C 53.273438 -80.09375 47.722656 -78.222656 43.234375 -74.484375 C 38.742188 -70.742188 36 -65.628906 35 -59.140625 L 84.59375 -59.140625 C 83.59375 -65.503906 80.84375 -70.585938 76.34375 -74.390625 C 71.851562 -78.191406 66.367188 -80.09375 59.890625 -80.09375 Z M 59.890625 -80.09375 "/></g></g></g><g fill="#ffffff" fill-opacity="1"><g transform="translate(431.82165, 753.947795)"><g><path d="M 113.40625 -100.6875 L 67.9375 6.171875 C 63.320312 17.773438 57.613281 25.945312 50.8125 30.6875 C 44.007812 35.425781 35.804688 37.796875 26.203125 37.796875 C 20.960938 37.796875 15.785156 36.984375 10.671875 35.359375 C 5.554688 33.742188 1.375 31.5 -1.875 28.625 L 8.796875 7.859375 C 11.046875 9.859375 13.632812 11.414062 16.5625 12.53125 C 19.488281 13.65625 22.390625 14.21875 25.265625 14.21875 C 29.253906 14.21875 32.492188 13.25 34.984375 11.3125 C 37.484375 9.382812 39.734375 6.175781 41.734375 1.6875 L 42.109375 0.75 L -1.5 -100.6875 L 28.625 -100.6875 L 56.890625 -32.375 L 85.34375 -100.6875 Z M 113.40625 -100.6875 "/></g></g></g><g fill="#ffffff" fill-opacity="1"><g transform="translate(543.729386, 753.947795)"><g><path d="M 61.375 1.5 C 50.769531 1.5 41.257812 -0.710938 32.84375 -5.140625 C 24.425781 -9.578125 17.84375 -15.722656 13.09375 -23.578125 C 8.351562 -31.441406 5.984375 -40.363281 5.984375 -50.34375 C 5.984375 -60.320312 8.351562 -69.238281 13.09375 -77.09375 C 17.84375 -84.957031 24.425781 -91.101562 32.84375 -95.53125 C 41.257812 -99.957031 50.769531 -102.171875 61.375 -102.171875 C 71.988281 -102.171875 81.472656 -99.957031 89.828125 -95.53125 C 98.179688 -91.101562 104.726562 -84.957031 109.46875 -77.09375 C 114.21875 -69.238281 116.59375 -60.320312 116.59375 -50.34375 C 116.59375 -40.363281 114.21875 -31.441406 109.46875 -23.578125 C 104.726562 -15.722656 98.179688 -9.578125 89.828125 -5.140625 C 81.472656 -0.710938 71.988281 1.5 61.375 1.5 Z M 61.375 -22.453125 C 68.863281 -22.453125 75.007812 -24.976562 79.8125 -30.03125 C 84.613281 -35.082031 87.015625 -41.851562 87.015625 -50.34375 C 87.015625 -58.820312 84.613281 -65.585938 79.8125 -70.640625 C 75.007812 -75.691406 68.863281 -78.21875 61.375 -78.21875 C 53.894531 -78.21875 47.722656 -75.691406 42.859375 -70.640625 C 37.992188 -65.585938 35.5625 -58.820312 35.5625 -50.34375 C 35.5625 -41.851562 37.992188 -35.082031 42.859375 -30.03125 C 47.722656 -24.976562 53.894531 -22.453125 61.375 -22.453125 Z M 61.375 -22.453125 "/></g></g></g><g fill="#ffffff" fill-opacity="1"><g transform="translate(666.303884, 753.947795)"><g><path d="M 74.671875 -102.171875 C 87.148438 -102.171875 97.222656 -98.425781 104.890625 -90.9375 C 112.566406 -83.457031 116.40625 -72.359375 116.40625 -57.640625 L 116.40625 0 L 87.203125 0 L 87.203125 -53.140625 C 87.203125 -61.128906 85.457031 -67.085938 81.96875 -71.015625 C 78.476562 -74.953125 73.425781 -76.921875 66.8125 -76.921875 C 59.445312 -76.921875 53.582031 -74.640625 49.21875 -70.078125 C 44.851562 -65.523438 42.671875 -58.757812 42.671875 -49.78125 L 42.671875 0 L 13.46875 0 L 13.46875 -100.6875 L 41.359375 -100.6875 L 41.359375 -88.890625 C 45.222656 -93.128906 50.023438 -96.398438 55.765625 -98.703125 C 61.503906 -101.015625 67.804688 -102.171875 74.671875 -102.171875 Z M 74.671875 -102.171875 "/></g></g></g><g fill="#ffffff" fill-opacity="1"><g transform="translate(795.615288, 753.947795)"><g><path d="M 116.03125 -138.859375 L 116.03125 0 L 88.140625 0 L 88.140625 -11.609375 C 80.910156 -2.867188 70.429688 1.5 56.703125 1.5 C 47.222656 1.5 38.644531 -0.617188 30.96875 -4.859375 C 23.300781 -9.109375 17.28125 -15.160156 12.90625 -23.015625 C 8.539062 -30.878906 6.359375 -39.988281 6.359375 -50.34375 C 6.359375 -60.695312 8.539062 -69.800781 12.90625 -77.65625 C 17.28125 -85.519531 23.300781 -91.570312 30.96875 -95.8125 C 38.644531 -100.050781 47.222656 -102.171875 56.703125 -102.171875 C 69.554688 -102.171875 79.597656 -98.117188 86.828125 -90.015625 L 86.828125 -138.859375 Z M 61.75 -22.453125 C 69.113281 -22.453125 75.226562 -24.976562 80.09375 -30.03125 C 84.957031 -35.082031 87.390625 -41.851562 87.390625 -50.34375 C 87.390625 -58.820312 84.957031 -65.585938 80.09375 -70.640625 C 75.226562 -75.691406 69.113281 -78.21875 61.75 -78.21875 C 54.269531 -78.21875 48.097656 -75.691406 43.234375 -70.640625 C 38.367188 -65.585938 35.9375 -58.820312 35.9375 -50.34375 C 35.9375 -41.851562 38.367188 -35.082031 43.234375 -30.03125 C 48.097656 -24.976562 54.269531 -22.453125 61.75 -22.453125 Z M 61.75 -22.453125 "/></g></g></g><g clip-path="url(#ab560f3d69)"><g clip-path="url(#9f49c97acf)"><g transform="matrix(1, 0, 0, 1, 1361, 628)"><g clip-path="url(#5158c0193a)"><g clip-path="url(#c7638e5b4f)"><g clip-path="url(#bdb205bfab)"><path fill="#ffffff" d="M 0.261719 0.605469 L 47.148438 0.605469 L 47.148438 47.492188 L 0.261719 47.492188 Z M 0.261719 0.605469 " fill-opacity="1" fill-rule="nonzero"/></g></g></g></g></g></g><path stroke-linecap="round" transform="matrix(0.689747, -0.294531, 0.294531, 0.689747, 920.077634, 763.11133)" fill="none" stroke-linejoin="miter" d="M 6.858005 85.983683 C 197.902916 -22.011103 388.952614 -21.993257 579.99752 86.033131 " stroke="#ffffff" stroke-width="10" stroke-opacity="1" stroke-miterlimit="4"/><path stroke-linecap="round" transform="matrix(0.749331, 0.0316685, -0.0316685, 0.749331, 660.847128, 819.983453)" fill="none" stroke-linejoin="miter" d="M 7.060602 30.626248 C 33.932085 -3.575357 60.801159 -3.543201 87.673248 30.727701 " stroke="#ffffff" stroke-width="10" stroke-opacity="1" stroke-miterlimit="4"/><path stroke-linecap="round" transform="matrix(0.749866, -0.0141709, 0.0141709, 0.749866, 720.352699, 784.374872)" fill="none" stroke-linejoin="miter" d="M 7.043803 82.017701 C 87.535516 -20.703749 168.038883 -20.67225 248.548599 82.117306 " stroke="#ffffff" stroke-width="10" stroke-opacity="1" stroke-miterlimit="4"/><path stroke-linecap="round" transform="matrix(0.749999, -0.00107917, 0.00107917, 0.749999, 241.846947, 841.536172)" fill="none" stroke-linejoin="miter" d="M 4.998964 5.000636 L 562.718315 5.001051 " stroke="#ffffff" stroke-width="10" stroke-opacity="1" stroke-miterlimit="4"/><g fill="#ffffff" fill-opacity="1"><g transform="translate(1072.227938, 830.12218)"><g><path d="M 31.75 -1.96875 C 30.582031 -1.113281 29.148438 -0.46875 27.453125 -0.03125 C 25.765625 0.394531 23.988281 0.609375 22.125 0.609375 C 17.269531 0.609375 13.515625 -0.625 10.859375 -3.09375 C 8.210938 -5.570312 6.890625 -9.210938 6.890625 -14.015625 L 6.890625 -30.765625 L 0.609375 -30.765625 L 0.609375 -39.859375 L 6.890625 -39.859375 L 6.890625 -49.78125 L 18.71875 -49.78125 L 18.71875 -39.859375 L 28.859375 -39.859375 L 28.859375 -30.765625 L 18.71875 -30.765625 L 18.71875 -14.171875 C 18.71875 -12.453125 19.15625 -11.125 20.03125 -10.1875 C 20.914062 -9.25 22.171875 -8.78125 23.796875 -8.78125 C 25.660156 -8.78125 27.25 -9.285156 28.5625 -10.296875 Z M 31.75 -1.96875 "/></g></g></g><g fill="#ffffff" fill-opacity="1"><g transform="translate(1105.184265, 830.12218)"><g><path d="M 30.234375 -41.375 C 35.285156 -41.375 39.363281 -39.859375 42.46875 -36.828125 C 45.570312 -33.796875 47.125 -29.296875 47.125 -23.328125 L 47.125 0 L 35.3125 0 L 35.3125 -21.515625 C 35.3125 -24.742188 34.601562 -27.15625 33.1875 -28.75 C 31.769531 -30.34375 29.722656 -31.140625 27.046875 -31.140625 C 24.066406 -31.140625 21.691406 -30.21875 19.921875 -28.375 C 18.160156 -26.53125 17.28125 -23.789062 17.28125 -20.15625 L 17.28125 0 L 5.453125 0 L 5.453125 -56.21875 L 17.28125 -56.21875 L 17.28125 -36.515625 C 18.84375 -38.085938 20.734375 -39.289062 22.953125 -40.125 C 25.179688 -40.957031 27.609375 -41.375 30.234375 -41.375 Z M 30.234375 -41.375 "/></g></g></g><g fill="#ffffff" fill-opacity="1"><g transform="translate(1157.990218, 830.12218)"><g><path d="M 45.390625 -20.234375 C 45.390625 -20.078125 45.3125 -19.015625 45.15625 -17.046875 L 14.3125 -17.046875 C 14.875 -14.523438 16.1875 -12.53125 18.25 -11.0625 C 20.320312 -9.59375 22.898438 -8.859375 25.984375 -8.859375 C 28.109375 -8.859375 29.988281 -9.175781 31.625 -9.8125 C 33.269531 -10.445312 34.800781 -11.441406 36.21875 -12.796875 L 42.5 -5.984375 C 38.664062 -1.585938 33.0625 0.609375 25.6875 0.609375 C 21.09375 0.609375 17.023438 -0.285156 13.484375 -2.078125 C 9.953125 -3.867188 7.222656 -6.351562 5.296875 -9.53125 C 3.378906 -12.71875 2.421875 -16.332031 2.421875 -20.375 C 2.421875 -24.363281 3.367188 -27.960938 5.265625 -31.171875 C 7.160156 -34.378906 9.757812 -36.878906 13.0625 -38.671875 C 16.375 -40.472656 20.078125 -41.375 24.171875 -41.375 C 28.160156 -41.375 31.769531 -40.515625 35 -38.796875 C 38.238281 -37.078125 40.78125 -34.613281 42.625 -31.40625 C 44.46875 -28.195312 45.390625 -24.472656 45.390625 -20.234375 Z M 24.25 -32.421875 C 21.570312 -32.421875 19.320312 -31.660156 17.5 -30.140625 C 15.6875 -28.628906 14.578125 -26.5625 14.171875 -23.9375 L 34.25 -23.9375 C 33.84375 -26.519531 32.726562 -28.578125 30.90625 -30.109375 C 29.09375 -31.648438 26.875 -32.421875 24.25 -32.421875 Z M 24.25 -32.421875 "/></g></g></g><g fill="#ffffff" fill-opacity="1"><g transform="translate(1205.795836, 830.12218)"><g/></g></g><g fill="#ffffff" fill-opacity="1"><g transform="translate(1227.236385, 830.12218)"><g><path d="M 42.125 -27.34375 L 53.34375 -27.34375 L 53.34375 -5.828125 C 50.457031 -3.660156 47.117188 -1.992188 43.328125 -0.828125 C 39.546875 0.328125 35.734375 0.90625 31.890625 0.90625 C 26.390625 0.90625 21.441406 -0.265625 17.046875 -2.609375 C 12.648438 -4.960938 9.203125 -8.222656 6.703125 -12.390625 C 4.203125 -16.554688 2.953125 -21.265625 2.953125 -26.515625 C 2.953125 -31.765625 4.203125 -36.472656 6.703125 -40.640625 C 9.203125 -44.816406 12.675781 -48.078125 17.125 -50.421875 C 21.570312 -52.765625 26.570312 -53.9375 32.125 -53.9375 C 36.769531 -53.9375 40.984375 -53.15625 44.765625 -51.59375 C 48.554688 -50.03125 51.742188 -47.757812 54.328125 -44.78125 L 46.4375 -37.5 C 42.65625 -41.488281 38.085938 -43.484375 32.734375 -43.484375 C 29.347656 -43.484375 26.34375 -42.773438 23.71875 -41.359375 C 21.09375 -39.953125 19.046875 -37.957031 17.578125 -35.375 C 16.109375 -32.800781 15.375 -29.847656 15.375 -26.515625 C 15.375 -23.234375 16.109375 -20.300781 17.578125 -17.71875 C 19.046875 -15.144531 21.078125 -13.140625 23.671875 -11.703125 C 26.273438 -10.265625 29.242188 -9.546875 32.578125 -9.546875 C 36.109375 -9.546875 39.289062 -10.300781 42.125 -11.8125 Z M 42.125 -27.34375 "/></g></g></g><g fill="#ffffff" fill-opacity="1"><g transform="translate(1285.648627, 830.12218)"><g><path d="M 21.890625 -41.375 C 28.203125 -41.375 33.050781 -39.867188 36.4375 -36.859375 C 39.820312 -33.859375 41.515625 -29.328125 41.515625 -23.265625 L 41.515625 0 L 30.453125 0 L 30.453125 -5.078125 C 28.234375 -1.285156 24.09375 0.609375 18.03125 0.609375 C 14.894531 0.609375 12.175781 0.078125 9.875 -0.984375 C 7.582031 -2.046875 5.828125 -3.507812 4.609375 -5.375 C 3.398438 -7.25 2.796875 -9.375 2.796875 -11.75 C 2.796875 -15.53125 4.222656 -18.503906 7.078125 -20.671875 C 9.929688 -22.847656 14.34375 -23.9375 20.3125 -23.9375 L 29.703125 -23.9375 C 29.703125 -26.519531 28.914062 -28.503906 27.34375 -29.890625 C 25.78125 -31.273438 23.4375 -31.96875 20.3125 -31.96875 C 18.132812 -31.96875 16 -31.625 13.90625 -30.9375 C 11.8125 -30.257812 10.03125 -29.34375 8.5625 -28.1875 L 4.3125 -36.4375 C 6.539062 -38.007812 9.207031 -39.222656 12.3125 -40.078125 C 15.414062 -40.941406 18.609375 -41.375 21.890625 -41.375 Z M 20.984375 -7.34375 C 23.003906 -7.34375 24.796875 -7.8125 26.359375 -8.75 C 27.929688 -9.6875 29.046875 -11.0625 29.703125 -12.875 L 29.703125 -17.046875 L 21.59375 -17.046875 C 16.738281 -17.046875 14.3125 -15.457031 14.3125 -12.28125 C 14.3125 -10.757812 14.90625 -9.554688 16.09375 -8.671875 C 17.28125 -7.785156 18.910156 -7.34375 20.984375 -7.34375 Z M 20.984375 -7.34375 "/></g></g></g><g fill="#ffffff" fill-opacity="1"><g transform="translate(1332.393573, 830.12218)"><g><path d="M 29.546875 -41.375 C 33.335938 -41.375 36.785156 -40.5 39.890625 -38.75 C 42.992188 -37.007812 45.429688 -34.5625 47.203125 -31.40625 C 48.972656 -28.25 49.859375 -24.570312 49.859375 -20.375 C 49.859375 -16.1875 48.972656 -12.515625 47.203125 -9.359375 C 45.429688 -6.203125 42.992188 -3.75 39.890625 -2 C 36.785156 -0.257812 33.335938 0.609375 29.546875 0.609375 C 24.347656 0.609375 20.257812 -1.03125 17.28125 -4.3125 L 17.28125 14.703125 L 5.453125 14.703125 L 5.453125 -40.765625 L 16.75 -40.765625 L 16.75 -36.0625 C 19.675781 -39.601562 23.941406 -41.375 29.546875 -41.375 Z M 27.5 -9.09375 C 30.53125 -9.09375 33.015625 -10.113281 34.953125 -12.15625 C 36.898438 -14.207031 37.875 -16.945312 37.875 -20.375 C 37.875 -23.8125 36.898438 -26.550781 34.953125 -28.59375 C 33.015625 -30.644531 30.53125 -31.671875 27.5 -31.671875 C 24.46875 -31.671875 21.976562 -30.644531 20.03125 -28.59375 C 18.09375 -26.550781 17.125 -23.8125 17.125 -20.375 C 17.125 -16.945312 18.09375 -14.207031 20.03125 -12.15625 C 21.976562 -10.113281 24.46875 -9.09375 27.5 -9.09375 Z M 27.5 -9.09375 "/></g></g></g><path stroke-linecap="butt" transform="matrix(0.75, 0, 0, 0.75, 1259.391021, 801.622111)" fill="none" stroke-linejoin="miter" d="M -0.000527833 7.498644 L 28.468225 7.498644 " stroke="#ffffff" stroke-width="15" stroke-opacity="1" stroke-miterlimit="4"/></svg>